<svg version="1.1" id="Layer_1" xmlns:x="ns_extend;" xmlns:i="ns_ai;" xmlns:graph="ns_graphs;" xmlns="http://www.w3.org/2000/svg" xmlns:xlink="http://www.w3.org/1999/xlink" x="0px" y="0px" viewBox="0 0 63.5 63.6" style="enable-background:new 0 0 63.5 63.6;" xml:space="preserve">
 <style type="text/css">
  .st0{fill:#FFFFFF;}
	.st1{fill:#231F20;}
 </style>
 <metadata>
  <sfw xmlns="ns_sfw;">
   <slices>
   </slices>
   <sliceSourceBounds bottomLeftOrigin="true" height="63.6" width="63.5" x="-60.7" y="89.4">
   </sliceSourceBounds>
  </sfw>
 </metadata>
 <g>
  <path class="st0" d="M31.8,1.9C15.3,1.9,1.9,15.3,1.9,31.8c0,8,3.1,15.5,8.8,21.1c5.6,5.6,13.2,8.8,21.1,8.8c8,0,15.5-3.1,21.1-8.8
		c5.6-5.6,8.8-13.2,8.8-21.1c0-8-3.1-15.5-8.8-21.1C47.3,5,39.7,1.9,31.8,1.9z M41.8,45.5H12.2l3-3l24.8-1.1l1.1-1.1H17.4l2.2-2.2
		L44.3,37l1.1-1.1H21.8l2.2-2.2l24.8-1.1l1.1-1.1H25.5L12.2,16l44.3,14.8L41.8,45.5z">
  </path>
  <polygon class="st1" points="25.5,31.5 49.9,31.5 48.8,32.6 24,33.7 21.8,35.9 45.4,35.9 44.3,37 19.6,38.1 17.4,40.4 41,40.4 
		39.9,41.5 15.1,42.6 12.2,45.5 41.8,45.5 56.5,30.8 12.2,16 	">
  </polygon>
  <path class="st1" d="M54.2,9.3c-6-6-14-9.3-22.5-9.3C14.6,0,0.5,13.7,0,30.8l0,1.9c0.2,8.1,3.5,15.8,9.3,21.5c6,6,14,9.3,22.5,9.3
		c8.5,0,16.5-3.3,22.5-9.3c5.8-5.8,9-13.4,9.3-21.5l0-1.9C63.3,22.7,60,15.1,54.2,9.3z M52.9,52.9c-5.6,5.6-13.2,8.8-21.1,8.8
		c-8,0-15.5-3.1-21.1-8.8C5,47.3,1.9,39.8,1.9,31.8c0-16.5,13.4-29.9,29.9-29.9c8,0,15.5,3.1,21.1,8.8c5.6,5.6,8.8,13.2,8.8,21.1
		C61.7,39.8,58.6,47.3,52.9,52.9z">
  </path>
 </g>
</svg>