<svg version="1.1" id="Layer_1" xmlns:x="ns_extend;" xmlns:i="ns_ai;" xmlns:graph="ns_graphs;" xmlns="http://www.w3.org/2000/svg" xmlns:xlink="http://www.w3.org/1999/xlink" x="0px" y="0px" viewBox="0 0 321.3 76" style="enable-background:new 0 0 321.3 76;" xml:space="preserve">
 <style type="text/css">
  .st0{fill:#231F20;}
	.st1{fill:#FFFFFF;}
 </style>
 <metadata>
  <sfw xmlns="ns_sfw;">
   <slices>
   </slices>
   <sliceSourceBounds bottomLeftOrigin="true" height="76" width="321.3" x="-189.6" y="83.2">
   </sliceSourceBounds>
  </sfw>
 </metadata>
 <desc>
  Created with Sketch.
 </desc>
 <g>
  <path class="st0" d="M321.3,0H0v76h321.3V0z">
  </path>
  <g>
   <g>
    <path class="st1" d="M203.7,13.8h3.4c2.9,0,5.5,0.8,5.5,4c0,3.1-2.3,4.2-5.1,4.2h-1.1v5h-2.7V13.8z M206.3,19.9h0.9
				c1.3,0,2.5-0.4,2.5-2c0-1.5-1.2-2.1-2.5-2.1h-0.9V19.9z">
    </path>
    <path class="st1" d="M225,13.6c4.2,0,6.5,2.8,6.5,6.8c0,4-2.3,6.9-6.5,6.9c-4.3,0-6.5-2.8-6.5-6.9
				C218.6,16.3,220.8,13.6,225,13.6z M225,25.2c2.7,0,3.7-2.4,3.7-4.8c0-2.3-1.1-4.7-3.7-4.7c-2.6,0-3.7,2.4-3.7,4.7
				C221.3,22.8,222.3,25.2,225,25.2z">
    </path>
    <path class="st1" d="M245.8,16.2c-0.8-0.4-1.8-0.6-2.7-0.6c-0.9,0-2.1,0.4-2.1,1.8c0,2.3,5.8,1.3,5.8,5.8c0,2.9-2.3,4-5,4
				c-1.4,0-2.1-0.2-3.4-0.5l0.3-2.4c0.9,0.5,1.9,0.8,3,0.8c1,0,2.4-0.5,2.4-1.7c0-2.5-5.8-1.5-5.8-5.9c0-3,2.3-4,4.6-4
				c1.2,0,2.2,0.2,3.2,0.5L245.8,16.2z">
    </path>
    <path class="st1" d="M256.4,15.9h-3.8v-2.1h10.2v2.1H259V27h-2.6V15.9z">
    </path>
    <path class="st1" d="M269.3,13.8h7.8v2.1h-5.2v3.3h4.7v2.1h-4.7v3.7h5.2V27h-7.9V13.8z">
    </path>
    <path class="st1" d="M291.7,16.2c-0.8-0.4-1.8-0.6-2.7-0.6c-0.9,0-2.1,0.4-2.1,1.8c0,2.3,5.8,1.3,5.8,5.8c0,2.9-2.3,4-5,4
				c-1.4,0-2.1-0.2-3.4-0.5l0.2-2.4c0.9,0.5,2,0.8,3,0.8c1,0,2.4-0.5,2.4-1.7c0-2.5-5.8-1.5-5.8-5.9c0-3,2.3-4,4.6-4
				c1.1,0,2.2,0.2,3.2,0.5L291.7,16.2z">
    </path>
   </g>
   <g>
    <path class="st1" d="M213.5,62c-1,0.2-2,0.4-3,0.4c-4.3,0-7.3-2.1-7.3-6.6c0-4.5,2.8-7.1,7.3-7.1c0.9,0,2,0.2,3,0.5l-0.2,2.2
				c-1-0.6-1.9-0.7-2.9-0.7c-2.7,0-4.4,2.1-4.4,4.8c0,2.7,1.7,4.7,4.5,4.7c1,0,2.3-0.2,2.9-0.5L213.5,62z">
    </path>
    <path class="st1" d="M224,49h3l5.2,13.2h-2.9l-1.1-3h-5.4l-1.2,3h-2.7L224,49z M225.5,51.6L225.5,51.6l-2,5.5h3.8L225.5,51.6z">
    </path>
    <path class="st1" d="M238.5,49h3.3l5,9.9h0V49h2.6v13.2h-3.3l-5.1-9.9h-0.1v9.9h-2.5V49z">
    </path>
    <path class="st1" d="M260.9,49h3l5.2,13.2h-2.9l-1.1-3h-5.4l-1.2,3h-2.7L260.9,49z M262.4,51.6L262.4,51.6l-2,5.5h3.9L262.4,51.6
				z">
    </path>
    <path class="st1" d="M275.5,49h3.6c4.1,0,7.6,1.4,7.6,6.6c0,5.3-3.6,6.6-7.6,6.6h-3.6V49z M278.2,60.1h1.5c2.2,0,4.4-1.7,4.4-4.5
				c0-2.9-2.2-4.5-4.4-4.5h-1.5V60.1z">
    </path>
    <path class="st1" d="M297.8,49h3l5.2,13.2h-3l-1.1-3h-5.4l-1.2,3h-2.8L297.8,49z M299.2,51.6L299.2,51.6l-1.9,5.5h3.9L299.2,51.6
				z">
    </path>
   </g>
  </g>
  <g>
   <g>
    <path class="st1" d="M26.3,26.8c-1,0.2-2,0.4-3,0.4c-4.3,0-7.3-2.1-7.3-6.6c0-4.5,2.8-7.1,7.3-7.1c0.9,0,2,0.2,3,0.5l-0.2,2.2
				c-1-0.6-1.9-0.7-2.9-0.7c-2.7,0-4.4,2.1-4.4,4.8c0,2.7,1.7,4.7,4.5,4.7c1,0,2.3-0.2,2.9-0.6L26.3,26.8z">
    </path>
    <path class="st1" d="M36.8,13.8h3L45,27h-2.9L41,24h-5.4l-1.2,3h-2.7L36.8,13.8z M38.3,16.4L38.3,16.4l-2,5.5h3.9L38.3,16.4z">
    </path>
    <path class="st1" d="M51.4,13.8h3.2l5.1,9.9h0v-9.9h2.5V27H59l-5.1-9.9h0V27h-2.5V13.8z">
    </path>
    <path class="st1" d="M73.7,13.8h3L81.9,27H79l-1.1-3h-5.4l-1.2,3h-2.7L73.7,13.8z M75.2,16.4L75.2,16.4l-2,5.5h3.9L75.2,16.4z">
    </path>
    <path class="st1" d="M88.4,13.8H92c4,0,7.6,1.4,7.6,6.6c0,5.3-3.6,6.6-7.6,6.6h-3.6V13.8z M91,24.9h1.5c2.2,0,4.3-1.6,4.3-4.5
				c0-2.9-2.1-4.5-4.3-4.5H91V24.9z">
    </path>
    <path class="st1" d="M110.6,13.8h3l5.2,13.2h-2.9l-1.1-3h-5.4l-1.2,3h-2.8L110.6,13.8z M112,16.4L112,16.4l-2,5.5h3.9L112,16.4z">
    </path>
   </g>
   <g>
    <path class="st1" d="M16.5,49h3.3c2.9,0,5.5,0.8,5.5,4c0,3.1-2.3,4.2-5.1,4.2h-1.1v5h-2.6V49z M19.1,55.1h0.9
				c1.3,0,2.5-0.4,2.5-2c0-1.5-1.2-2.1-2.5-2.1h-0.9V55.1z">
    </path>
    <path class="st1" d="M37.8,48.8c4.2,0,6.5,2.8,6.5,6.8c0,4-2.3,6.9-6.5,6.9c-4.2,0-6.5-2.8-6.5-6.9
				C31.4,51.5,33.6,48.8,37.8,48.8z M37.8,60.4c2.7,0,3.7-2.4,3.7-4.8c0-2.3-1.1-4.7-3.7-4.7c-2.6,0-3.7,2.4-3.7,4.7
				C34.1,58,35.1,60.4,37.8,60.4z">
    </path>
    <path class="st1" d="M58.6,51.4c-0.8-0.4-1.8-0.6-2.7-0.6c-0.9,0-2.1,0.4-2.1,1.8c0,2.3,5.8,1.3,5.8,5.8c0,2.9-2.3,4-5,4
				c-1.4,0-2.1-0.2-3.4-0.5l0.2-2.4c0.9,0.5,2,0.8,3,0.8c1,0,2.4-0.5,2.4-1.7c0-2.5-5.8-1.5-5.8-5.9c0-3,2.3-4,4.6-4
				c1.1,0,2.2,0.1,3.2,0.5L58.6,51.4z">
    </path>
    <path class="st1" d="M69.2,51.1h-3.8V49h10.2v2.1h-3.8v11.1h-2.6V51.1z">
    </path>
   </g>
  </g>
  <g>
   <polygon class="st1" points="150.6,42.2 152.9,39.9 177.6,38.8 178.7,37.7 154.3,37.7 141,22.2 185.4,37 170.6,51.8 141,51.8 
			144,48.8 168.7,47.7 169.8,46.6 146.2,46.6 148.4,44.4 173.2,43.3 174.3,42.2 		">
   </polygon>
  </g>
  <path class="st1" d="M321.3,37.1H192.4c-0.2-8.1-3.5-15.7-9.3-21.5c-6-6-14-9.3-22.5-9.3c-17.2,0-31.2,13.7-31.8,30.8H0V39h128.8
		c0.2,8.1,3.5,15.8,9.3,21.5c6,6,14,9.3,22.5,9.3c8.5,0,16.5-3.3,22.5-9.3c5.8-5.8,9-13.4,9.3-21.5h128.9V37.1z M181.7,59.2
		c-5.6,5.6-13.2,8.8-21.1,8.8c-8,0-15.5-3.1-21.1-8.8c-5.6-5.6-8.8-13.2-8.8-21.1c0-16.5,13.4-29.9,29.9-29.9c8,0,15.5,3.1,21.1,8.8
		c5.6,5.6,8.8,13.2,8.8,21.1C190.5,46,187.4,53.5,181.7,59.2z">
  </path>
 </g>
</svg>